<?xml version="1.0" encoding="UTF-8"?>
<svg width="25" height="25" viewBox="0 0 72 72" xmlns="http://www.w3.org/2000/svg">
  <path fill="#FCEA2B" d="M36 13c-12.682 0-23 10.318-23 23s10.318 23 23 23 23-10.318 23-23-10.318-23-23-23z"/>
  <path fill="#EA5A47" d="M44.5 41c-1.338 0-2.5-.86-2.5-2.198v-4.604C42 32.86 43.162 32 44.5 32s2.5.86 2.5 2.198v4.604C47 40.14 45.838 41 44.5 41z"/>
  <path fill="#92D3F5" d="M27.5 41c-1.338 0-2.5-.86-2.5-2.198v-4.604C25 32.86 26.162 32 27.5 32s2.5.86 2.5 2.198v4.604C30 40.14 28.838 41 27.5 41z"/>
</svg>
